<svg width="510" height="136" viewBox="0 0 510 136" fill="none" xmlns="http://www.w3.org/2000/svg">
<path d="M484.4 135.162H409V89.2094C412.541 92.4545 416.798 94.348 421.378 94.348C433.692 94.348 443.674 80.6676 443.674 63.7924C443.674 55.0384 440.988 47.1444 436.683 41.5736H484.4V135.162Z" fill="#EF7D00"/>
<path d="M418.676 112.368H422.336L421.768 115.595L419.517 128.278H415.858L416.426 125.05L418.676 112.368ZM427.324 128.278H422.597L425.415 112.368H429.12C435.779 112.368 438.689 115.982 437.916 120.709C437.12 125.687 433.552 128.278 427.324 128.278ZM428.483 115.777L426.87 124.869H428.62C431.87 124.869 433.688 123.323 434.188 120.459C434.688 117.573 433.234 115.777 429.779 115.777H428.483ZM452.685 112.368L452.071 115.777H444.571L444.048 118.732H450.571L450.048 121.732H443.503L442.934 124.869H450.435L449.844 128.278H441.093C439.616 128.278 438.866 127.164 439.093 125.823L441.48 112.368H452.685ZM466.539 128.278H462.857L462.402 125.119H456.288L454.697 128.278H450.742L458.106 114.754C459.311 112.55 460.106 112.163 461.629 112.163C462.788 112.163 463.902 112.55 464.266 114.754L466.539 128.278ZM461.016 115.641L457.902 121.891H461.925L461.016 115.641ZM474.162 112.368L471.912 124.846H478.276L477.685 128.278H470.071C468.616 128.278 467.821 127.187 468.071 125.823L470.48 112.368H474.162Z" fill="white"/>
<path d="M19.7616 102.615C14.5511 102.615 10.3271 98.3908 10.3271 93.1803V33.0647H29.196V93.1803C29.196 98.3908 24.972 102.615 19.7616 102.615Z" fill="white"/>
<path d="M59.4069 102.615C48.9859 102.615 40.538 94.1668 40.538 83.7458V33.3427H59.4069V44.7157H59.7946C61.6039 40.7524 64.2748 37.6291 67.8074 35.3459C71.3399 33.0627 75.7125 31.9211 80.9251 31.9211C88.5502 31.9211 94.4306 34.2258 98.5662 38.8353C102.745 43.4018 104.834 49.756 104.834 57.8981V83.7458C104.834 94.1668 96.3864 102.615 85.9654 102.615V61.7752C85.9654 57.2519 84.8884 53.7624 82.7345 51.3069C80.6236 48.8083 77.4572 47.559 73.2354 47.559C70.4352 47.559 68.0012 48.2052 65.9334 49.4976C63.8656 50.7469 62.2501 52.5131 61.087 54.7963C59.9669 57.0796 59.4069 59.7505 59.4069 62.8091V102.615Z" fill="white"/>
<path d="M143.963 104.036C137.587 104.036 132.159 103.11 127.679 101.258C123.198 99.4053 119.687 96.842 117.146 93.568C114.647 90.2509 113.139 86.4168 112.622 82.0657C112.588 81.7555 112.831 81.4842 113.143 81.4842H130.378C130.726 81.4842 131.028 81.7259 131.103 82.0657C131.707 84.7797 133.064 86.8906 135.174 88.3984C137.285 89.9062 140.215 90.6601 143.963 90.6601C146.375 90.6601 148.421 90.3801 150.102 89.8201C151.782 89.2169 153.074 88.3769 153.979 87.2999C154.926 86.2229 155.4 84.9305 155.4 83.4227V83.3581C155.4 81.5057 154.733 80.0195 153.397 78.8994C152.062 77.7793 149.692 76.8316 146.289 76.0561L134.528 73.6006C130.048 72.6528 126.3 71.2958 123.284 69.5296C120.312 67.7202 118.072 65.5016 116.564 62.8738C115.056 60.2028 114.302 57.1442 114.302 53.6978V53.6332C114.302 49.196 115.487 45.3619 117.856 42.1309C120.226 38.9 123.586 36.4014 127.937 34.6351C132.331 32.8257 137.458 31.9211 143.316 31.9211C149.434 31.9211 154.625 32.9119 158.89 34.8936C163.198 36.8321 166.493 39.46 168.777 42.7771C171.103 46.0943 172.331 49.7776 172.46 53.8271V54.4732H155.077L155.013 53.9563C154.711 51.4577 153.548 49.3899 151.523 47.7528C149.541 46.0727 146.806 45.2327 143.316 45.2327C141.162 45.2327 139.289 45.5342 137.695 46.1373C136.101 46.7405 134.873 47.602 134.011 48.7221C133.15 49.7991 132.719 51.0915 132.719 52.5993V52.6639C132.719 53.8271 132.999 54.8825 133.559 55.8303C134.162 56.7349 135.153 57.5319 136.531 58.2212C137.91 58.9104 139.762 59.5136 142.089 60.0305L153.849 62.5507C161.13 64.0585 166.342 66.3201 169.487 69.3357C172.675 72.3513 174.269 76.4008 174.269 81.4842V81.5488C174.269 86.0721 172.977 90.0139 170.392 93.3741C167.807 96.7343 164.232 99.3622 159.665 101.258C155.142 103.11 149.908 104.036 143.963 104.036Z" fill="white"/>
<path d="M209.779 104.036C202.111 104.036 196.424 102.421 192.719 99.1899C189.014 95.9589 187.162 90.6386 187.162 83.2289V47.559H177.534V42.971C177.534 37.6534 181.844 33.3427 187.162 33.3427V25.9438C187.162 20.6797 191.429 16.4124 196.693 16.4124C201.957 16.4124 206.225 20.6797 206.225 25.9438V33.3427C213.22 33.3427 218.89 39.0132 218.89 46.0081V47.559H206.225V81.1611C206.225 84.392 206.936 86.6537 208.357 87.9461C209.822 89.1954 211.976 89.8201 214.819 89.8201C215.681 89.8201 216.435 89.7985 217.081 89.7554C218.033 89.6284 218.89 90.3637 218.89 91.3247V99.421C218.89 101.674 217.258 103.591 215.013 103.778C213.505 103.95 211.76 104.036 209.779 104.036Z" fill="white"/>
<path d="M227.97 102.615V52.2116C227.97 41.7906 236.418 33.3427 246.839 33.3427V45.4265H247.227C248.261 41.1616 250.135 37.8445 252.849 35.4751C255.563 33.1058 258.945 31.9211 262.994 31.9211C264.028 31.9211 265.019 31.9857 265.967 32.1149C267.448 32.3169 268.422 33.6495 268.422 35.1441V46.1764C268.422 47.65 266.909 48.7367 265.45 48.5283C264.243 48.3129 262.951 48.2052 261.573 48.2052C258.471 48.2052 255.821 48.8083 253.624 50.0145C251.427 51.2207 249.747 52.987 248.584 55.3133C247.421 57.6396 246.839 60.4828 246.839 63.8431V83.7458C246.839 94.1668 238.391 102.615 227.97 102.615Z" fill="white"/>
<path d="M298.439 104.036C293.356 104.036 289.026 103.002 285.451 100.935C281.918 98.8237 279.204 95.8297 277.309 91.9525C275.456 88.0753 274.53 83.4443 274.53 78.0593V52.2116C274.53 41.7906 282.978 33.3427 293.399 33.3427V74.1175C293.399 78.6409 294.454 82.1519 296.565 84.6505C298.719 87.1491 301.907 88.3984 306.129 88.3984C308.24 88.3984 310.135 88.0323 311.815 87.2999C313.539 86.5676 315.003 85.5336 316.21 84.1982C317.416 82.8196 318.342 81.2041 318.988 79.3517C319.634 77.4562 319.957 75.3884 319.957 73.1483V33.3427C330.378 33.3427 338.826 41.7906 338.826 52.2116V93.1803C338.826 98.3908 334.602 102.615 329.392 102.615C324.181 102.615 319.957 98.3908 319.957 93.1803V91.1771H319.57C318.364 93.8049 316.77 96.0882 314.788 98.0267C312.849 99.9653 310.502 101.452 307.744 102.485C305.03 103.519 301.929 104.036 298.439 104.036Z" fill="white"/>
<path d="M377.309 104.036C369.64 104.036 363.954 102.421 360.249 99.1899C356.544 95.9589 354.692 90.6386 354.692 83.2289V47.559H345.063V42.971C345.063 37.6534 349.374 33.3427 354.692 33.3427V25.9438C354.692 20.6797 358.959 16.4124 364.223 16.4124C369.487 16.4124 373.754 20.6798 373.754 25.9438V33.3427C380.749 33.3427 386.42 39.0132 386.42 46.0081V47.559H373.754V81.1611C373.754 84.392 374.465 86.6537 375.887 87.9461C377.352 89.1954 379.506 89.8201 382.349 89.8201C383.21 89.8201 383.964 89.7985 384.611 89.7554C385.257 89.6693 385.86 89.5831 386.42 89.497V103.326C385.386 103.498 384.094 103.649 382.543 103.778C381.035 103.95 379.29 104.036 377.309 104.036Z" fill="white"/>
<path d="M426.388 104.036C419.366 104.036 413.292 102.593 408.166 99.7068C403.039 96.8205 399.076 92.6849 396.276 87.2999C393.475 81.915 392.075 75.4746 392.075 67.9787V67.8495C392.075 60.3967 393.497 53.9994 396.34 48.6575C399.183 43.2725 403.168 39.1369 408.295 36.2506C413.421 33.3642 419.431 31.9211 426.324 31.9211C433.259 31.9211 439.291 33.3642 444.417 36.2506C449.587 39.0938 453.593 43.2079 456.436 48.5929C459.279 53.9348 460.701 60.3536 460.701 67.8495V67.9787C460.701 75.5176 459.279 81.9796 456.436 87.3645C453.636 92.7495 449.673 96.8851 444.546 99.7715C439.42 102.615 433.367 104.036 426.388 104.036ZM426.453 89.2385C429.512 89.2385 432.161 88.42 434.401 86.783C436.684 85.1028 438.429 82.6904 439.635 79.5456C440.884 76.3577 441.509 72.5021 441.509 67.9787V67.8495C441.509 63.3692 440.884 59.5566 439.635 56.4118C438.386 53.267 436.62 50.8761 434.336 49.2391C432.053 47.559 429.382 46.7189 426.324 46.7189C423.308 46.7189 420.659 47.559 418.375 49.2391C416.135 50.8761 414.391 53.267 413.141 56.4118C411.892 59.5566 411.267 63.3692 411.267 67.8495V67.9787C411.267 72.5021 411.87 76.3577 413.077 79.5456C414.326 82.6904 416.092 85.1028 418.375 86.783C420.659 88.42 423.351 89.2385 426.453 89.2385Z" fill="white"/>
<path d="M469.135 102.615V52.2116C469.135 41.7906 477.583 33.3427 488.004 33.3427V45.4265H488.392C489.426 41.1616 491.3 37.8445 494.014 35.4751C496.728 33.1058 500.109 31.9211 504.159 31.9211C505.193 31.9211 506.184 31.9857 507.131 32.1149C508.612 32.3169 509.587 33.6495 509.587 35.1441V46.1764C509.587 47.65 508.073 48.7367 506.614 48.5283C505.408 48.3129 504.116 48.2052 502.737 48.2052C499.636 48.2052 496.986 48.8083 494.789 50.0145C492.592 51.2207 490.912 52.987 489.749 55.3133C488.586 57.6396 488.004 60.4828 488.004 63.8431V83.7458C488.004 94.1668 479.556 102.615 469.135 102.615Z" fill="white"/>
<path fill-rule="evenodd" clip-rule="evenodd" d="M19.7628 3.29381C28.8587 3.29381 36.2318 10.667 36.2318 19.7628C36.2318 28.8587 28.8587 36.2319 19.7628 36.2319C10.667 36.2319 3.29379 28.8587 3.29379 19.7628C3.29379 10.667 10.667 3.29381 19.7628 3.29381ZM6.92521 22.7437C7.50156 25.218 8.7801 27.4732 10.6072 29.2384C12.4343 31.0036 14.7323 32.2036 17.2249 32.6943C16.9071 28.3712 15.4858 25.7773 13.6907 24.3429C11.9713 22.9677 9.63931 22.4358 6.92521 22.7421V22.7437ZM25.835 24.3412C24.0398 25.779 22.6186 28.3712 22.3007 32.6943C24.7936 32.2035 27.0917 31.0032 28.9188 29.2377C30.7459 27.4722 32.0244 25.2167 32.6004 22.7421C29.8863 22.4358 27.5543 22.9677 25.835 24.3429V24.3412ZM19.7628 6.58761C16.693 6.58707 13.7194 7.65849 11.3554 9.61685C8.99142 11.5752 7.38547 14.2976 6.81487 17.3139L6.74405 17.7223L10.3837 16.9944C11.3422 16.8034 12.2529 16.2978 13.2707 15.611L14.0563 15.0642C15.3689 14.1321 17.3139 13.1752 19.7628 13.1752C22.0487 13.1752 23.8949 14.0086 25.1976 14.8781L26.2549 15.611C27.1442 16.2121 27.9545 16.6732 28.7846 16.9088L29.1419 16.9944L32.7816 17.7223C32.2951 14.6192 30.716 11.7919 28.3289 9.75026C25.9418 7.70864 22.9039 6.58701 19.7628 6.58761Z" fill="#EF7D00"/>
</svg>
